# xmcd
# Copyright (C) 1995-1998 Ti Kan
#
# Track frame offsets:
#       150
#       4705
#       5305
#       9879
#       11154
#       18958
#       23608
#       41329
#       43374
#       55509
#
# Disc length: 977 seconds
#
# Revision: 0
# Processed by: cddbd v1.5.2PL0 Copyright (c) Steve Scherf et al.
# Submitted via: CD-Transfer v1.0
#
DISCID=5e03cf0a
DTITLE=Palumo - 
DYEAR=1900
DGENRE=
TTITLE0=Backseat Driver Navel
TTITLE1=Duplo - Längste Praline
TTITLE2=Sicherheitsdienst
TTITLE3=Sämi Jingle Zämegschnitte
TTITLE4=I'm Lövin' It - Werbung
TTITLE5=Sämi Titel
TTITLE6=Strassenmusik - Episode I
TTITLE7=Verbrauchermeldung
TTITLE8=English Civil War
TTITLE9=It Doesn't Matter
EXTD=
EXTT0=
EXTT1=
EXTT2=
EXTT3=
EXTT4=
EXTT5=
EXTT6=
EXTT7=
EXTT8=
EXTT9=
PLAYORDER=
